<svg xmlns="http://www.w3.org/2000/svg" viewBox="0 0 900 520">
  <rect width="900" height="520" rx="28" fill="#0f1419"/>
  <rect x="42" y="42" width="190" height="436" rx="22" fill="#16181c"/>
  <rect x="260" y="42" width="598" height="436" rx="22" fill="#fff"/>
  <circle cx="92" cy="92" r="24" fill="#1d9bf0"/>
  <rect x="130" y="78" width="70" height="14" rx="7" fill="#e7e9ea"/>
  <rect x="72" y="150" width="120" height="16" rx="8" fill="#71767b"/>
  <rect x="72" y="206" width="92" height="16" rx="8" fill="#71767b"/>
  <rect x="72" y="262" width="132" height="16" rx="8" fill="#71767b"/>
  <rect x="300" y="82" width="220" height="28" rx="14" fill="#0f1419"/>
  <rect x="300" y="146" width="510" height="70" rx="18" fill="#f7f9f9"/>
  <rect x="300" y="240" width="510" height="70" rx="18" fill="#f7f9f9"/>
  <rect x="300" y="334" width="360" height="70" rx="18" fill="#f7f9f9"/>
  <circle cx="336" cy="181" r="18" fill="#f91880"/>
  <circle cx="336" cy="275" r="18" fill="#00ba7c"/>
  <circle cx="336" cy="369" r="18" fill="#7856ff"/>
  <rect x="378" y="168" width="250" height="14" rx="7" fill="#536471"/>
  <rect x="378" y="192" width="390" height="10" rx="5" fill="#cfd9de"/>
  <rect x="378" y="262" width="210" height="14" rx="7" fill="#536471"/>
  <rect x="378" y="286" width="350" height="10" rx="5" fill="#cfd9de"/>
  <rect x="378" y="356" width="180" height="14" rx="7" fill="#536471"/>
  <rect x="378" y="380" width="250" height="10" rx="5" fill="#cfd9de"/>
</svg>
