<svg xmlns="http://www.w3.org/2000/svg" viewBox="0 0 900 520">
  <rect width="900" height="520" rx="28" fill="#e7e9ea"/>
  <rect x="330" y="36" width="240" height="448" rx="42" fill="#0f1419"/>
  <rect x="350" y="64" width="200" height="392" rx="28" fill="#fff"/>
  <rect x="386" y="84" width="128" height="8" rx="4" fill="#0f1419"/>
  <rect x="372" y="120" width="156" height="34" rx="17" fill="#f7f9f9"/>
  <circle cx="386" cy="192" r="16" fill="#1d9bf0"/>
  <rect x="412" y="178" width="90" height="10" rx="5" fill="#536471"/>
  <rect x="412" y="198" width="108" height="8" rx="4" fill="#cfd9de"/>
  <rect x="372" y="234" width="156" height="86" rx="14" fill="#0f1419"/>
  <circle cx="386" cy="360" r="16" fill="#f91880"/>
  <rect x="412" y="346" width="82" height="10" rx="5" fill="#536471"/>
  <rect x="412" y="366" width="112" height="8" rx="4" fill="#cfd9de"/>
  <rect x="392" y="426" width="116" height="6" rx="3" fill="#0f1419"/>
  <circle cx="236" cy="250" r="62" fill="#1d9bf0"/>
  <path d="M214 250h44M236 228v44" stroke="#fff" stroke-width="14" stroke-linecap="round"/>
  <circle cx="664" cy="250" r="62" fill="#00ba7c"/>
  <path d="m638 250 18 18 36-40" fill="none" stroke="#fff" stroke-width="14" stroke-linecap="round" stroke-linejoin="round"/>
</svg>
